# xmcd
#
# Track frame offsets: 
#        150
#        15375
#        29795
#        44204
#        65171
#        73285
#        89591
#        109220
#        120872
#        135723
#        146217
#        159638
#        178701
#
# Disc length: 2533 seconds
#
# Revision: 0
# Processed by: cddbd v1.5.2PL0 Copyright (c) Steve Scherf et al.
# Submitted via: ExactAudioCopy v1.0b3
#
DISCID=cc09e30d
DTITLE=Katarina Pejak - Perfume and Luck
DYEAR=2011
DGENRE=Blues
TTITLE0=Perfume and Luck
TTITLE1=Turtle Blues
TTITLE2=Missin' You
TTITLE3=Invitation to The Blues
TTITLE4=Cow-Cow Boogie
TTITLE5=My Home
TTITLE6=Half Ain't Been Told
TTITLE7=Pinch Boogie
TTITLE8=Put It Right Here
TTITLE9=Some Of These Days
TTITLE10=Man Of The Hour
TTITLE11=It's A Blessing
TTITLE12=Levee Blues
EXTD=
EXTT0=
EXTT1=
EXTT2=
EXTT3=
EXTT4=
EXTT5=
EXTT6=
EXTT7=
EXTT8=
EXTT9=
EXTT10=
EXTT11=
EXTT12=
PLAYORDER=
